<svg id="Camada_1" data-name="Camada 1" xmlns="http://www.w3.org/2000/svg" viewBox="0 0 16 16"><defs><style>.cls-1{fill:#203040;}.cls-2{fill:#fb0;}.cls-3{fill:#fff;}</style></defs><title>Prancheta 1</title><path class="cls-1" d="M11.46,15.27c-.14.14-.51.24-2.38.28-3.92.08-4.12-.21-4.22-.35-.45-.65.24-1.35.91-2,.52-.52,1.16-1.17,1.12-1.63,0-.06,0-.25-.33-.49C1.7,7.36,5.36.83,5.4.76a.39.39,0,0,1,.34-.2h4.89a.39.39,0,0,1,.34.2C11,.82,14.67,7.35,9.81,11c-.31.24-.33.43-.33.49,0,.46.61,1.11,1.12,1.62.69.7,1.35,1.36.94,2ZM11,14.64Zm-5.48,0a33.81,33.81,0,0,0,5.33,0,5,5,0,0,0-.81-1c-.66-.66-1.4-1.41-1.34-2.23a1.45,1.45,0,0,1,.64-1.06c3.87-2.95,1.59-8,1.06-9.08H6C5.42,2.42,3.12,7.45,7,10.42a1.45,1.45,0,0,1,.64,1.05c.06.82-.69,1.57-1.35,2.24A5,5,0,0,0,5.53,14.67Zm-.15,0"/><path class="cls-2" d="M11.5,3.07c.65,2.14,1,5.44-1.93,7.66C7.71,12.15,11.81,14,11.2,15a23.4,23.4,0,0,1-6,0c-.64-.93,3.48-2.82,1.62-4.24C3.84,8.48,4.23,5.12,4.89,3"/><path class="cls-1" d="M11.46,15.27c-.14.14-.51.24-2.38.28-3.92.08-4.12-.21-4.22-.35-.45-.65.24-1.35.91-2,.52-.52,1.16-1.17,1.12-1.63,0-.06,0-.25-.33-.49-3.24-2.46-2.67-6.18-2-8.18a.39.39,0,1,1,.75.23C4.58,5.3,4.33,8.36,7,10.42a1.45,1.45,0,0,1,.64,1.05c.06.82-.69,1.57-1.35,2.24a5,5,0,0,0-.81,1,33.81,33.81,0,0,0,5.33,0,5,5,0,0,0-.81-1c-.66-.66-1.4-1.41-1.34-2.23a1.45,1.45,0,0,1,.64-1.06c2.68-2,2.46-5.06,1.79-7.24A.39.39,0,1,1,11.88,3c1,3.41.31,6.28-2.07,8.09-.32.24-.33.43-.33.49,0,.46.61,1.11,1.12,1.62.69.7,1.35,1.36.94,2ZM11,14.64Z"/><path class="cls-3" d="M7.9,9.44a.39.39,0,0,1-.55,0,5.93,5.93,0,0,1-1.78-5,.39.39,0,0,1,.77.14h0A5.14,5.14,0,0,0,7.9,8.88a.39.39,0,0,1,0,.55Z"/><path class="cls-1" d="M11.22,14.38a.39.39,0,0,1-.28.11H7a.39.39,0,0,1,0-.78h3.93a.39.39,0,0,1,.28.67Z"/></svg>